<?xml version="1.0" encoding="UTF-8" standalone="no"?>
<!DOCTYPE svg PUBLIC "-//W3C//DTD SVG 1.1//EN" "http://www.w3.org/Graphics/SVG/1.1/DTD/svg11.dtd">
<svg width="100%" height="100%" viewBox="0 0 13019 6311" version="1.1" xmlns="http://www.w3.org/2000/svg" xmlns:xlink="http://www.w3.org/1999/xlink" xml:space="preserve" xmlns:serif="http://www.serif.com/" style="fill-rule:evenodd;clip-rule:evenodd;stroke-linecap:round;stroke-miterlimit:1.5;">
    <g transform="matrix(1,0,0,1,-158655,-162349)">
        <g transform="matrix(1,0,0,1,1539.73,159330)">
            <g transform="matrix(0.827428,0,0,0.827428,28283.4,1867.8)">
                <g transform="matrix(1.22048,0,0,0.952656,-21006.8,-82794)">
                    <path d="M145883,88800.9C145883,88800.9 146885,90205.7 147563,91155.6C147645,91270.7 147659,91441 147597,91575.4C147535,91709.8 147412,91777 147294,91741C147046,91665.7 146767,91580.9 146485,91495.2C146220,91414.5 145944,91560.7 145801,91857.9C145658,92155.2 145679,92536.5 145855,92804.2C146568,93895.4 147329,95058 147329,95058" style="fill:none;stroke:rgb(203,112,134);stroke-width:416.67px;"/>
                </g>
                <g transform="matrix(1.22048,0,0,0.952656,-21719.1,-81950.3)">
                    <path d="M145883,88800.9C145883,88800.9 146885,90205.7 147563,91155.6C147645,91270.7 147659,91441 147597,91575.4C147535,91709.8 147412,91777 147294,91741C147046,91665.7 146767,91580.9 146485,91495.2C146220,91414.5 145944,91560.7 145801,91857.9C145658,92155.2 145679,92536.5 145855,92804.2C146568,93895.4 147329,95058 147329,95058" style="fill:none;stroke:rgb(203,112,134);stroke-width:416.67px;"/>
                </g>
            </g>
            <g transform="matrix(2.26577,0,0,2.26577,93345.8,-5054.4)">
                <path d="M30048.1,5222.79L30424.4,4714.28L30063.8,4714.28C30050.9,4714.28 30044.5,4707.46 30044.5,4693.84L30044.5,4554.39C30044.5,4541.57 30050.9,4535.15 30063.8,4535.15L30658.8,4535.15C30671.7,4535.15 30678.1,4541.57 30678.1,4554.39L30678.1,4664.99C30678.1,4673 30675.7,4681.02 30670.9,4689.03L30293.4,5197.55L30662.4,5197.55C30675.3,5197.55 30681.7,5204.36 30681.7,5217.98L30681.7,5357.43C30681.7,5370.26 30675.3,5376.67 30662.4,5376.67L30060.2,5376.67C30046.5,5376.67 30039.7,5370.26 30039.7,5357.43L30039.7,5246.83C30039.7,5238.82 30042.5,5230.81 30048.1,5222.79Z" style="fill:rgb(203,112,134);fill-rule:nonzero;stroke:rgb(203,112,134);stroke-width:25.75px;stroke-linecap:butt;stroke-linejoin:round;stroke-miterlimit:2;"/>
                <g transform="matrix(1,0,0,1,-75.6478,0)">
                    <path d="M30761,4955.91C30761,4832.49 30803.1,4728.9 30887.2,4645.15C30971.4,4561.4 31075.6,4519.53 31199.8,4519.53C31324,4519.53 31428.2,4561.4 31512.4,4645.15C31596.5,4728.9 31638.6,4832.49 31638.6,4955.91C31638.6,5079.33 31596.5,5182.72 31512.4,5266.07C31428.2,5350.22 31324,5392.3 31199.8,5392.3C31075.6,5392.3 30971.4,5350.42 30887.2,5266.67C30803.1,5182.92 30761,5079.33 30761,4955.91ZM30960.6,4955.91C30960.6,5029.64 30982.6,5090.15 31026.7,5137.44C31070.8,5185.52 31128.5,5209.57 31199.8,5209.57C31271.1,5209.57 31328.8,5185.72 31372.9,5138.04C31417,5090.35 31439,5029.64 31439,4955.91C31439,4882.18 31417,4821.47 31372.9,4773.78C31328.8,4726.1 31271.1,4702.25 31199.8,4702.25C31128.5,4702.25 31070.8,4726.1 31026.7,4773.78C30982.6,4821.47 30960.6,4882.18 30960.6,4955.91Z" style="fill:rgb(203,112,134);fill-rule:nonzero;stroke:rgb(203,112,134);stroke-width:25.75px;stroke-linecap:butt;stroke-linejoin:round;stroke-miterlimit:2;"/>
                </g>
                <g transform="matrix(1,0,0,1,-129.779,0)">
                    <path d="M31683.1,4535.15L31850.2,4535.15C31862.2,4535.15 31869.8,4540.36 31873,4550.78L32069,5109.79L32071.4,5109.79L32267.3,4550.78C32270.5,4540.36 32278.1,4535.15 32290.2,4535.15L32457.3,4535.15C32468.5,4535.15 32474.1,4539.56 32474.1,4548.38C32474.1,4550.78 32473.7,4553.99 32472.9,4557.99L32172.4,5361.04C32169.2,5371.46 32161.9,5376.67 32150.7,5376.67L31989.6,5376.67C31978.4,5376.67 31971.2,5371.46 31968,5361.04L31667.4,4557.99C31666.6,4553.99 31666.2,4550.78 31666.2,4548.38C31666.2,4539.56 31671.9,4535.15 31683.1,4535.15Z" style="fill:rgb(203,112,134);fill-rule:nonzero;stroke:rgb(203,112,134);stroke-width:25.75px;stroke-linecap:butt;stroke-linejoin:round;stroke-miterlimit:2;"/>
                </g>
                <g transform="matrix(1,0,0,1,-183.453,0)">
                    <path d="M32400.8,5353.83L32714.5,4550.78C32717.7,4540.36 32725.4,4535.15 32737.4,4535.15L32917.7,4535.15C32930.5,4535.15 32938.5,4540.36 32941.7,4550.78L33256.7,5353.83C33257.5,5357.83 33257.9,5361.04 33257.9,5363.44C33257.9,5372.26 33252.3,5376.67 33241.1,5376.67L33077.6,5376.67C33066.4,5376.67 33059.2,5371.46 33055.9,5361.04L33007.9,5230L32648.4,5230L32600.3,5361.04C32597.1,5371.46 32589.5,5376.67 32577.5,5376.67L32416.4,5376.67C32404.4,5376.67 32398.4,5372.66 32398.4,5364.65C32398.4,5361.44 32399.2,5357.83 32400.8,5353.83ZM32944.1,5058.09L32829.9,4747.94L32826.3,4747.94L32712.1,5058.09L32944.1,5058.09Z" style="fill:rgb(203,112,134);fill-rule:nonzero;stroke:rgb(203,112,134);stroke-width:25.75px;stroke-linecap:butt;stroke-linejoin:round;stroke-miterlimit:2;"/>
                </g>
                <g transform="matrix(1,0,0,1,-206.327,0)">
                    <path d="M33380.5,4535.15L33535.6,4535.15C33549.2,4535.15 33556,4541.57 33556,4554.39L33556,4878.97L33890.2,4878.97L33890.2,4554.39C33890.2,4541.57 33896.7,4535.15 33909.5,4535.15L34064.6,4535.15C34077.4,4535.15 34083.8,4541.57 34083.8,4554.39L34083.8,5357.43C34083.8,5370.26 34077.4,5376.67 34064.6,5376.67L33909.5,5376.67C33896.7,5376.67 33890.2,5370.26 33890.2,5357.43L33890.2,5060.5L33556,5060.5L33556,5357.43C33556,5370.26 33549.2,5376.67 33535.6,5376.67L33380.5,5376.67C33367.7,5376.67 33361.3,5370.26 33361.3,5357.43L33361.3,4554.39C33361.3,4541.57 33367.7,4535.15 33380.5,4535.15Z" style="fill:rgb(203,112,134);fill-rule:nonzero;stroke:rgb(203,112,134);stroke-width:25.75px;stroke-linecap:butt;stroke-linejoin:round;stroke-miterlimit:2;"/>
                </g>
            </g>
        </g>
    </g>
</svg>
